<svg width="131" height="130" viewBox="0 0 131 130" fill="none" xmlns="http://www.w3.org/2000/svg">
	<path
		d="M86.1934 0C101.733 0.0270012 102.338 0.156712 105.375 0.595703C111.643 1.4997 116.903 4.0004 121.204 8.1084C123.614 10.4273 125.274 12.6955 126.769 15.7324C128.59 19.4423 129.486 22.952 129.896 28.1719C129.984 29.2919 130.024 47.1161 130.024 64.9521C130.024 82.7834 129.987 100.639 129.899 101.762C129.494 106.899 128.599 110.439 126.834 114.079C123.324 121.319 116.874 126.599 109.084 128.609C106.259 129.339 103.704 129.682 99.3037 129.889C97.7321 129.969 81.3126 129.989 64.8936 129.989C48.474 129.989 32.0647 129.939 30.4541 129.869C26.6541 129.689 23.6937 129.309 21.0137 128.619C13.2738 126.619 6.70363 121.259 3.26367 114.119C1.46368 110.389 0.614062 106.979 0.164062 101.559C0.0340908 100.018 0.00390625 92.0864 0.00390625 64.9688C0.00390607 55.8319 -0.00609366 49.0197 0.00390625 43.8438C0.0299064 28.3165 0.157693 27.696 0.597656 24.6562C1.50266 18.3942 4.00293 13.1258 8.12793 8.84375C10.3928 6.49587 12.6878 4.82093 15.5977 3.37598C19.3737 1.49598 22.8402 0.61925 28.4102 0.15625C29.9535 0.0282591 37.892 0 65.0332 0H86.1934ZM64.9961 17C51.9672 17 50.3307 17.0571 45.2119 17.29C40.102 17.524 36.6135 18.3326 33.5615 19.5195C30.4046 20.7455 27.7265 22.3858 25.0586 25.0547C22.3887 27.7226 20.7485 30.4008 19.5186 33.5566C18.3286 36.6096 17.5181 40.099 17.2881 45.207C17.0591 50.327 17 51.964 17 65C17 78.036 17.058 79.6671 17.29 84.7871C17.525 89.8968 18.3336 93.3846 19.5195 96.4365C20.7465 99.5935 22.3867 102.272 25.0557 104.94C27.7226 107.61 30.4008 109.255 33.5557 110.48C36.6096 111.667 40.0991 112.476 45.208 112.71C50.3277 112.943 51.9634 113 64.998 113C78.0343 113 79.6655 112.943 84.7852 112.71C89.895 112.476 93.3875 111.667 96.4414 110.48C99.5973 109.255 102.272 107.61 104.938 104.94C107.608 102.273 109.249 99.5943 110.479 96.4385C111.659 93.3855 112.469 89.8961 112.709 84.7881C112.939 79.6681 112.999 78.036 112.999 65C112.999 51.964 112.939 50.328 112.709 45.208C112.469 40.098 111.659 36.6096 110.479 33.5576C109.249 30.4008 107.608 27.7226 104.938 25.0547C102.269 22.3848 99.5984 20.7445 96.4385 19.5195C93.3785 18.3326 89.8882 17.524 84.7783 17.29C79.6595 17.0571 78.029 17 64.9961 17ZM60.6973 25.6504C61.9753 25.6484 63.4019 25.6504 65.0039 25.6504C77.8195 25.6504 79.3386 25.6958 84.3994 25.9258C89.0794 26.1398 91.6195 26.9221 93.3115 27.5791C95.5514 28.4491 97.1482 29.4891 98.8271 31.1689C100.507 32.8489 101.548 34.4495 102.42 36.6895C103.077 38.3794 103.859 40.9194 104.072 45.5986C104.302 50.6586 104.353 52.1793 104.353 64.9893C104.353 77.799 104.302 79.319 104.072 84.3789C103.858 89.0588 103.077 91.5991 102.42 93.2891C101.55 95.5291 100.507 97.1237 98.8271 98.8027C97.1472 100.483 95.5524 101.523 93.3115 102.393C91.6215 103.053 89.0794 103.833 84.3994 104.047C79.3396 104.277 77.8195 104.327 65.0039 104.327C52.1869 104.327 50.6674 104.277 45.6074 104.047C40.9275 103.831 38.3873 103.049 36.6943 102.392C34.4545 101.522 32.8547 100.482 31.1748 98.8018C29.4949 97.1218 28.455 95.526 27.583 93.2852C26.926 91.5952 26.1427 89.055 25.9297 84.375C25.6997 79.315 25.6533 77.7946 25.6533 64.9766C25.6533 52.159 25.6997 50.6469 25.9297 45.5869C26.1437 40.907 26.926 38.3668 27.583 36.6748C28.453 34.435 29.4949 32.8352 31.1748 31.1553C32.8547 29.4754 34.4545 28.4354 36.6943 27.5635C38.3863 26.9035 40.9275 26.1232 45.6074 25.9082C50.0354 25.7082 51.7515 25.6477 60.6973 25.6377V25.6504ZM65.0039 40.3496C51.3909 40.3496 40.3535 51.387 40.3535 65C40.3535 78.613 51.3909 89.6445 65.0039 89.6445C78.6167 89.6443 89.6494 78.6129 89.6494 65C89.6494 51.3871 78.6167 40.3498 65.0039 40.3496ZM65.0039 49C73.8397 49.0002 81.0039 56.1631 81.0039 65C81.0039 73.8359 73.8397 80.9998 65.0039 81C56.1669 81 49.0039 73.836 49.0039 65C49.0039 56.163 56.1669 49 65.0039 49ZM90.626 33.6201C87.446 33.6201 84.8653 36.197 84.8652 39.3779C84.8652 42.5579 87.446 45.1377 90.626 45.1377C93.8058 45.1375 96.3857 42.5578 96.3857 39.3779C96.3857 36.1981 93.8058 33.6184 90.626 33.6182V33.6201Z"
		fill="#FFD80B" />
</svg>